Genre:Fantasy | Horror | Thriller
Language:English
IMDb:http://www.imdb.com/title/tt1591095/
Source:DVD9/Audio:Imagine Thanks!


Format : MPEG-4
Format profile : Base Media
Codec ID : isom
File size : 900 MiB
Duration : 1h 38mn
Overall bit rate : 1 281 Kbps


Video
Format profile : High@L4.1
Format settings, CABAC : Yes
Format settings, ReFrames : 3 frames
Codec ID : avc1
Codec ID/Info : Advanced Video Coding
Duration : 1h 38mn
Bit rate mode : Variable
Bit rate : 1 034 Kbps
Maximum bit rate : 8 647 Kbps
Width : 720 pixels
Height : 304 pixels
Display aspect ratio : 2.35:1
Frame rate mode : Constant
Frame rate : 25.000 fps
Color space : YUV
Chroma subsampling : 4:2:0
Bit depth : 8 bits
Scan type : Progressive
Bits/(Pixel*Frame) : 0.189
Stream size : 726 MiB (81%)
Writing library : x264


Audio
ID : 2
Format : AAC
Format/Info : Advanced Audio Codec
Format version : Version 4
Format profile : LC
Format settings, SBR : No
Codec ID : 40
Duration : 1h 38mn
Bit rate mode : Variable
Bit rate : 244 Kbps
Maximum bit rate : 345 Kbps
Channel(s) : 2 channels
Channel positions : Front: L R
Sampling rate : 44.1 KHz
Stream size : 171 MiB (19%)


Plot:
A family looks to prevent evil spirits from trapping their comatose child in a realm called The Further.

Screens:
 
http://leetleech.org/images/57843792078872937493.png 
http://leetleech.org/images/65269464195955499903.png 
http://leetleech.org/images/30278920745671491225.png 
http://leetleech.org/images/17356186477147905031.png 
http://leetleech.org/images/66394619598647443767.png

Greets:

INK,CRYS,IMAGINE,LKRG,FXG,3Li,FLAWL3SS,TA,iLLUSiON,ViSiON,DTRG SAFCuk009,LU,TheFalcon007,MYSTiC,PrisM,Noir,WBZ,LAP,Rx,Kingdom,SAFCuk009+Fabreezy,HDLiTE,TWiZTED,ExtraTorrentRG.ELEKTRI4KA,MAGNAT,CM8
And to all the other p2p grps past and present.